<svg width="56" height="56" viewBox="0 0 56 56" fill="none" xmlns="http://www.w3.org/2000/svg">
<rect x="0.5" y="0.5" width="55" height="55" rx="27.5" stroke="url(#paint0_linear_227_1810)"/>
<path d="M35.27 21.33C33.94 20.71 32.5 20.26 31 20C30.9868 19.9996 30.9738 20.002 30.9617 20.0072C30.9496 20.0124 30.9388 20.0202 30.93 20.03C30.75 20.36 30.54 20.79 30.4 21.12C28.809 20.88 27.191 20.88 25.6 21.12C25.46 20.78 25.25 20.36 25.06 20.03C25.05 20.01 25.02 20 24.99 20C23.49 20.26 22.06 20.71 20.72 21.33C20.71 21.33 20.7 21.34 20.69 21.35C17.97 25.42 17.22 29.38 17.59 33.3C17.59 33.32 17.6 33.34 17.62 33.35C19.42 34.67 21.15 35.47 22.86 36C22.89 36.01 22.92 36 22.93 35.98C23.33 35.43 23.69 34.85 24 34.24C24.02 34.2 24 34.16 23.96 34.15C23.39 33.93 22.85 33.67 22.32 33.37C22.28 33.35 22.28 33.29 22.31 33.26C22.42 33.18 22.53 33.09 22.64 33.01C22.66 32.99 22.69 32.99 22.71 33C26.15 34.57 29.86 34.57 33.26 33C33.28 32.99 33.31 32.99 33.33 33.01C33.44 33.1 33.55 33.18 33.66 33.27C33.7 33.3 33.7 33.36 33.65 33.38C33.13 33.69 32.58 33.94 32.01 34.16C31.97 34.17 31.96 34.22 31.97 34.25C32.29 34.86 32.65 35.44 33.04 35.99C33.07 36 33.1 36.01 33.13 36C34.85 35.47 36.58 34.67 38.38 33.35C38.4 33.34 38.41 33.32 38.41 33.3C38.85 28.77 37.68 24.84 35.31 21.35C35.3 21.34 35.29 21.33 35.27 21.33ZM24.52 30.91C23.49 30.91 22.63 29.96 22.63 28.79C22.63 27.62 23.47 26.67 24.52 26.67C25.58 26.67 26.42 27.63 26.41 28.79C26.41 29.96 25.57 30.91 24.52 30.91ZM31.49 30.91C30.46 30.91 29.6 29.96 29.6 28.79C29.6 27.62 30.44 26.67 31.49 26.67C32.55 26.67 33.39 27.63 33.38 28.79C33.38 29.96 32.55 30.91 31.49 30.91Z" fill="white"/>
<defs>
<linearGradient id="paint0_linear_227_1810" x1="28" y1="0" x2="28" y2="35.6364" gradientUnits="userSpaceOnUse">
<stop stop-color="white"/>
<stop offset="1" stop-color="white" stop-opacity="0"/>
</linearGradient>
</defs>
</svg>
