<svg width="56" height="56" viewBox="0 0 56 56" fill="none" xmlns="http://www.w3.org/2000/svg">
<rect x="0.5" y="0.5" width="55" height="55" rx="27.5" stroke="url(#paint0_linear_227_1813)"/>
<g clip-path="url(#clip0_227_1813)">
<path d="M40 28C40 31.1826 38.7357 34.2348 36.4853 36.4853C34.2348 38.7357 31.1826 40 28 40C24.8174 40 21.7652 38.7357 19.5147 36.4853C17.2643 34.2348 16 31.1826 16 28C16 24.8174 17.2643 21.7652 19.5147 19.5147C21.7652 17.2643 24.8174 16 28 16C31.1826 16 34.2348 17.2643 36.4853 19.5147C38.7357 21.7652 40 24.8174 40 28ZM28.4305 24.859C27.2625 25.345 24.9295 26.35 21.4315 27.874C20.8645 28.099 20.567 28.32 20.539 28.537C20.494 28.9015 20.9515 29.0455 21.574 29.242L21.8365 29.3245C22.4485 29.524 23.2735 29.7565 23.701 29.7655C24.091 29.7755 24.525 29.6155 25.003 29.2855C28.272 27.0795 29.959 25.9645 30.064 25.9405C30.139 25.9225 30.244 25.9015 30.313 25.9645C30.382 26.0275 30.376 26.1445 30.3685 26.176C30.3235 26.3695 28.528 28.0375 27.5995 28.9015C27.31 29.1715 27.1045 29.362 27.0625 29.4055C26.97 29.5 26.876 29.5931 26.7805 29.6845C26.2105 30.2335 25.7845 30.6445 26.803 31.3165C27.2935 31.6405 27.6865 31.906 28.078 32.173C28.504 32.464 28.93 32.7535 29.482 33.1165C29.622 33.2085 29.757 33.302 29.887 33.397C30.3835 33.751 30.832 34.069 31.3825 34.018C31.7035 33.988 32.035 33.688 32.203 32.788C32.6005 30.6625 33.382 26.059 33.562 24.1615C33.5733 24.0038 33.5668 23.8453 33.5425 23.689C33.528 23.563 33.467 23.447 33.3715 23.3635C33.2348 23.2697 33.0723 23.2209 32.9065 23.224C32.4565 23.2315 31.762 23.473 28.4305 24.859Z" fill="white"/>
</g>
<defs>
<linearGradient id="paint0_linear_227_1813" x1="28" y1="0" x2="28" y2="35.6364" gradientUnits="userSpaceOnUse">
<stop stop-color="white"/>
<stop offset="1" stop-color="white" stop-opacity="0"/>
</linearGradient>
<clipPath id="clip0_227_1813">
<rect width="24" height="24" fill="white" transform="translate(16 16)"/>
</clipPath>
</defs>
</svg>
