<svg width="56" height="56" viewBox="0 0 56 56" fill="none" xmlns="http://www.w3.org/2000/svg">
<rect x="0.5" y="0.5" width="55" height="55" rx="27.5" stroke="url(#paint0_linear_227_1816)"/>
<path d="M23.6501 36.91C23.6201 36.91 23.5801 36.93 23.5501 36.93C21.6101 35.97 20.0301 34.38 19.0601 32.44C19.0601 32.41 19.0801 32.37 19.0801 32.34C20.3001 32.7 21.5601 32.97 22.8101 33.18C23.0301 34.44 23.2901 35.69 23.6501 36.91Z" fill="white"/>
<path d="M36.94 32.45C35.95 34.44 34.3 36.05 32.29 37.02C32.67 35.75 32.99 34.47 33.2 33.18C34.46 32.97 35.7 32.7 36.92 32.34C36.91 32.38 36.94 32.42 36.94 32.45Z" fill="white"/>
<path d="M37.02 23.71C35.76 23.33 34.49 23.02 33.2 22.8C32.99 21.51 32.68 20.23 32.29 18.98C34.36 19.97 36.03 21.64 37.02 23.71Z" fill="white"/>
<path d="M23.65 19.09C23.29 20.31 23.03 21.55 22.82 22.81C21.53 23.01 20.25 23.33 18.98 23.71C19.95 21.7 21.56 20.05 23.55 19.06C23.58 19.06 23.62 19.09 23.65 19.09Z" fill="white"/>
<path d="M31.49 22.59C29.17 22.33 26.83 22.33 24.51 22.59C24.76 21.22 25.08 19.85 25.53 18.53C25.55 18.45 25.54 18.39 25.55 18.31C26.34 18.12 27.15 18 28 18C28.84 18 29.66 18.12 30.44 18.31C30.45 18.39 30.45 18.45 30.47 18.53C30.92 19.86 31.24 21.22 31.49 22.59Z" fill="white"/>
<path d="M22.59 31.49C21.21 31.24 19.85 30.92 18.53 30.47C18.45 30.45 18.39 30.46 18.31 30.45C18.12 29.66 18 28.85 18 28C18 27.16 18.12 26.34 18.31 25.56C18.39 25.55 18.45 25.55 18.53 25.53C19.86 25.09 21.21 24.76 22.59 24.51C22.34 26.83 22.34 29.17 22.59 31.49Z" fill="white"/>
<path d="M38 28C38 28.85 37.88 29.66 37.69 30.45C37.61 30.46 37.55 30.45 37.47 30.47C36.14 30.91 34.78 31.24 33.41 31.49C33.67 29.17 33.67 26.83 33.41 24.51C34.78 24.76 36.15 25.08 37.47 25.53C37.55 25.55 37.61 25.56 37.69 25.56C37.88 26.35 38 27.16 38 28Z" fill="white"/>
<path d="M31.49 33.41C31.24 34.79 30.92 36.15 30.47 37.47C30.45 37.55 30.45 37.61 30.44 37.69C29.66 37.88 28.84 38 28 38C27.15 38 26.34 37.88 25.55 37.69C25.54 37.61 25.55 37.55 25.53 37.47C25.09 36.14 24.76 34.79 24.51 33.41C25.67 33.54 26.83 33.63 28 33.63C29.17 33.63 30.34 33.54 31.49 33.41Z" fill="white"/>
<path d="M31.7633 31.7633C29.2622 32.0789 26.7378 32.0789 24.2367 31.7633C23.9211 29.2622 23.9211 26.7378 24.2367 24.2367C26.7378 23.9211 29.2622 23.9211 31.7633 24.2367C32.0789 26.7378 32.0789 29.2622 31.7633 31.7633Z" fill="white"/>
<defs>
<linearGradient id="paint0_linear_227_1816" x1="28" y1="0" x2="28" y2="35.6364" gradientUnits="userSpaceOnUse">
<stop stop-color="white"/>
<stop offset="1" stop-color="white" stop-opacity="0"/>
</linearGradient>
</defs>
</svg>
