<svg width="281" height="145" viewBox="0 0 281 145" fill="none" xmlns="http://www.w3.org/2000/svg">
<g filter="url(#filter0_b_303_3146)">
<path d="M20 1.94116H191.355H202.214C212.707 1.94116 221.214 10.4477 221.214 20.9412V21.5C221.841 43.3891 234.782 48.4318 244.258 51.1394C247.538 52.0765 250.942 52.5391 254.353 52.5391H261C271.493 52.5391 280 61.0457 280 71.5392V125C280 135.493 271.493 144 261 144L20 144C9.50659 144 1 135.493 1 125V20.9412C1 10.4478 9.50659 1.94116 20 1.94116Z" fill="white" fill-opacity="0.05"/>
<path d="M20 1.94116H191.355H202.214C212.707 1.94116 221.214 10.4477 221.214 20.9412V21.5C221.841 43.3891 234.782 48.4318 244.258 51.1394C247.538 52.0765 250.942 52.5391 254.353 52.5391H261C271.493 52.5391 280 61.0457 280 71.5392V125C280 135.493 271.493 144 261 144L20 144C9.50659 144 1 135.493 1 125V20.9412C1 10.4478 9.50659 1.94116 20 1.94116Z" stroke="url(#paint0_linear_303_3146)" stroke-width="2"/>
</g>
<defs>
<filter id="filter0_b_303_3146" x="-40" y="-39.0588" width="361" height="224.059" filterUnits="userSpaceOnUse" color-interpolation-filters="sRGB">
<feFlood flood-opacity="0" result="BackgroundImageFix"/>
<feGaussianBlur in="BackgroundImageFix" stdDeviation="20"/>
<feComposite in2="SourceAlpha" operator="in" result="effect1_backgroundBlur_303_3146"/>
<feBlend mode="normal" in="SourceGraphic" in2="effect1_backgroundBlur_303_3146" result="shape"/>
</filter>
<linearGradient id="paint0_linear_303_3146" x1="140.5" y1="1.94116" x2="140.5" y2="92.3422" gradientUnits="userSpaceOnUse">
<stop stop-color="white"/>
<stop offset="1" stop-color="white" stop-opacity="0"/>
</linearGradient>
</defs>
</svg>
