<svg width="50" height="50" viewBox="0 0 50 50" fill="none" xmlns="http://www.w3.org/2000/svg">
<rect x="0.5" y="0.5" width="48.4558" height="48.4558" rx="24.2279" fill="white" fill-opacity="0.1"/>
<rect x="0.5" y="0.5" width="48.4558" height="48.4558" rx="24.2279" stroke="url(#paint0_linear_303_3161)"/>
<path d="M29.6335 27.0561C29.5327 27.1568 29.3948 27.2205 29.2357 27.2205C28.9281 27.2205 28.6736 26.9659 28.6736 26.6583L28.6736 20.7823L22.7975 20.7823C22.4899 20.7823 22.2354 20.5277 22.2354 20.2201C22.2354 19.9125 22.4899 19.658 22.7975 19.658L29.2357 19.658C29.5433 19.658 29.7979 19.9125 29.7979 20.2201L29.7979 26.6583C29.7979 26.8174 29.7342 26.9553 29.6335 27.0561Z" fill="white"/>
<path d="M29.5433 20.708L20.6179 29.6335C20.4004 29.8509 20.0398 29.8509 19.8224 29.6335C19.6049 29.416 19.6049 29.0554 19.8224 28.838L28.7478 19.9125C28.9653 19.6951 29.3259 19.6951 29.5433 19.9125C29.7608 20.13 29.7608 20.4906 29.5433 20.708Z" fill="white"/>
<defs>
<linearGradient id="paint0_linear_303_3161" x1="49" y1="13.5001" x2="24.7279" y2="31.4719" gradientUnits="userSpaceOnUse">
<stop stop-color="white"/>
<stop offset="1" stop-color="white" stop-opacity="0"/>
</linearGradient>
</defs>
</svg>
