<svg width="232" height="128" viewBox="0 0 232 128" fill="none" xmlns="http://www.w3.org/2000/svg">
<path d="M126 75.8333H106C87.9001 75.8333 80.1667 68.1 80.1667 50V30C80.1667 11.9 87.9001 4.16667 106 4.16667H126C144.1 4.16667 151.833 11.9 151.833 30V50C151.833 68.1 144.1 75.8333 126 75.8333ZM106 9.16667C90.6334 9.16667 85.1667 14.6333 85.1667 30V50C85.1667 65.3667 90.6334 70.8333 106 70.8333H126C141.367 70.8333 146.833 65.3667 146.833 50V30C146.833 14.6333 141.367 9.16667 126 9.16667H106Z" fill="#3F3F46"/>
<path d="M111.467 31.6667C110.833 31.6667 110.2 31.4333 109.7 30.9333C107.333 28.5667 103.467 28.5667 101.1 30.9333C100.133 31.9 98.5332 31.9 97.5666 30.9333C96.5999 29.9667 96.5999 28.3667 97.5666 27.4C101.867 23.1 108.9 23.1 113.233 27.4C114.2 28.3667 114.2 29.9667 113.233 30.9333C112.733 31.4333 112.1 31.6667 111.467 31.6667Z" fill="#3F3F46"/>
<path d="M120.533 31.6667C119.9 31.6667 119.267 31.4333 118.767 30.9333C117.8 29.9667 117.8 28.3667 118.767 27.4C123.067 23.1 130.1 23.1 134.433 27.4C135.4 28.3667 135.4 29.9667 134.433 30.9333C133.467 31.9 131.867 31.9 130.9 30.9333C128.533 28.5667 124.667 28.5667 122.3 30.9333C121.833 31.4333 121.2 31.6667 120.533 31.6667Z" fill="#3F3F46"/>
<path d="M128 61.5H104C100.967 61.5 98.5 59.0333 98.5 56C98.5 46.3667 106.333 38.5 116 38.5C125.667 38.5 133.5 46.3667 133.5 56C133.5 59.0333 131.033 61.5 128 61.5ZM116 43.5C109.1 43.5 103.5 49.1 103.5 56C103.5 56.2667 103.733 56.5 104 56.5H128C128.267 56.5 128.5 56.2667 128.5 56C128.5 49.1 122.9 43.5 116 43.5Z" fill="#3F3F46"/>
<path d="M8.4 109.8V111.56H5.248V121H3.408V111.56H0.24V109.8H8.4ZM13.8566 112.792C14.774 112.792 15.5153 113.085 16.0806 113.672C16.646 114.259 16.9286 115.064 16.9286 116.088V121H15.2006V116.264C15.2006 115.667 15.0406 115.208 14.7206 114.888C14.4006 114.568 13.9633 114.408 13.4086 114.408C12.8006 114.408 12.31 114.6 11.9366 114.984C11.5633 115.357 11.3766 115.933 11.3766 116.712V121H9.64863V109.8H11.3766V114.024C11.8993 113.203 12.726 112.792 13.8566 112.792ZM20.1493 117.736C20.2773 118.344 20.5706 118.813 21.0293 119.144C21.4879 119.464 22.0479 119.624 22.7093 119.624C23.6266 119.624 24.3146 119.293 24.7733 118.632L26.1973 119.464C25.4079 120.627 24.2399 121.208 22.6933 121.208C21.3919 121.208 20.3413 120.813 19.5413 120.024C18.7413 119.224 18.3413 118.216 18.3413 117C18.3413 115.805 18.7359 114.808 19.5253 114.008C20.3146 113.197 21.3279 112.792 22.5653 112.792C23.7386 112.792 24.6986 113.203 25.4453 114.024C26.2026 114.845 26.5813 115.843 26.5813 117.016C26.5813 117.197 26.5599 117.437 26.5173 117.736H20.1493ZM20.1332 116.328H24.8373C24.7199 115.677 24.4479 115.187 24.0213 114.856C23.6053 114.525 23.1146 114.36 22.5493 114.36C21.9093 114.36 21.3759 114.536 20.9493 114.888C20.5226 115.24 20.2506 115.72 20.1332 116.328ZM29.8298 114.344C30.2671 113.352 31.0884 112.856 32.2938 112.856V114.728C31.6324 114.685 31.0564 114.845 30.5658 115.208C30.0751 115.56 29.8298 116.147 29.8298 116.968V121H28.1018V113H29.8298V114.344ZM34.5555 117.736C34.6835 118.344 34.9768 118.813 35.4355 119.144C35.8942 119.464 36.4542 119.624 37.1155 119.624C38.0328 119.624 38.7208 119.293 39.1795 118.632L40.6035 119.464C39.8142 120.627 38.6462 121.208 37.0995 121.208C35.7982 121.208 34.7475 120.813 33.9475 120.024C33.1475 119.224 32.7475 118.216 32.7475 117C32.7475 115.805 33.1422 114.808 33.9315 114.008C34.7208 113.197 35.7342 112.792 36.9715 112.792C38.1448 112.792 39.1048 113.203 39.8515 114.024C40.6088 114.845 40.9875 115.843 40.9875 117.016C40.9875 117.197 40.9662 117.437 40.9235 117.736H34.5555ZM34.5395 116.328H39.2435C39.1262 115.677 38.8542 115.187 38.4275 114.856C38.0115 114.525 37.5208 114.36 36.9555 114.36C36.3155 114.36 35.7822 114.536 35.3555 114.888C34.9288 115.24 34.6568 115.72 34.5395 116.328ZM48.14 111.48C47.9267 111.693 47.6707 111.8 47.372 111.8C47.0733 111.8 46.812 111.693 46.588 111.48C46.3747 111.256 46.268 110.995 46.268 110.696C46.268 110.397 46.3747 110.141 46.588 109.928C46.8013 109.704 47.0627 109.592 47.372 109.592C47.6813 109.592 47.9427 109.704 48.156 109.928C48.3693 110.141 48.476 110.397 48.476 110.696C48.476 110.995 48.364 111.256 48.14 111.48ZM46.508 121V113H48.236V121H46.508ZM51.7475 115.208C51.7475 115.475 51.8915 115.688 52.1795 115.848C52.4782 115.997 52.8355 116.131 53.2515 116.248C53.6782 116.355 54.1048 116.483 54.5315 116.632C54.9582 116.781 55.3155 117.037 55.6035 117.4C55.9022 117.752 56.0515 118.2 56.0515 118.744C56.0515 119.512 55.7528 120.115 55.1555 120.552C54.5688 120.989 53.8275 121.208 52.9315 121.208C52.1422 121.208 51.4648 121.043 50.8995 120.712C50.3342 120.381 49.9235 119.923 49.6675 119.336L51.1555 118.472C51.4328 119.24 52.0248 119.624 52.9315 119.624C53.8382 119.624 54.2915 119.325 54.2915 118.728C54.2915 118.472 54.1422 118.264 53.8435 118.104C53.5555 117.944 53.1982 117.811 52.7715 117.704C52.3555 117.587 51.9342 117.453 51.5075 117.304C51.0808 117.155 50.7182 116.909 50.4195 116.568C50.1315 116.216 49.9875 115.773 49.9875 115.24C49.9875 114.504 50.2648 113.912 50.8195 113.464C51.3848 113.016 52.0835 112.792 52.9155 112.792C53.5768 112.792 54.1635 112.941 54.6755 113.24C55.1982 113.528 55.5982 113.933 55.8755 114.456L54.4195 115.272C54.1422 114.664 53.6408 114.36 52.9155 114.36C52.5848 114.36 52.3075 114.435 52.0835 114.584C51.8595 114.723 51.7475 114.931 51.7475 115.208ZM65.7785 112.792C66.6958 112.792 67.4372 113.085 68.0025 113.672C68.5678 114.259 68.8505 115.064 68.8505 116.088V121H67.1225V116.264C67.1225 115.667 66.9625 115.208 66.6425 114.888C66.3225 114.568 65.8852 114.408 65.3305 114.408C64.7225 114.408 64.2318 114.6 63.8585 114.984C63.4852 115.357 63.2985 115.933 63.2985 116.712V121H61.5705V113H63.2985V114.024C63.8212 113.203 64.6478 112.792 65.7785 112.792ZM74.4871 121.208C73.3138 121.208 72.3165 120.803 71.4951 119.992C70.6738 119.181 70.2631 118.184 70.2631 117C70.2631 115.816 70.6738 114.819 71.4951 114.008C72.3165 113.197 73.3138 112.792 74.4871 112.792C75.6711 112.792 76.6685 113.197 77.4791 114.008C78.3005 114.819 78.7111 115.816 78.7111 117C78.7111 118.184 78.3005 119.181 77.4791 119.992C76.6685 120.803 75.6711 121.208 74.4871 121.208ZM72.7111 118.808C73.1911 119.288 73.7831 119.528 74.4871 119.528C75.1911 119.528 75.7831 119.288 76.2631 118.808C76.7431 118.328 76.9831 117.725 76.9831 117C76.9831 116.275 76.7431 115.672 76.2631 115.192C75.7831 114.712 75.1911 114.472 74.4871 114.472C73.7831 114.472 73.1911 114.712 72.7111 115.192C72.2311 115.672 71.9911 116.275 71.9911 117C71.9911 117.725 72.2311 118.328 72.7111 118.808ZM88.4816 112.792C89.399 112.792 90.1403 113.085 90.7056 113.672C91.271 114.259 91.5536 115.064 91.5536 116.088V121H89.8256V116.264C89.8256 115.667 89.6656 115.208 89.3456 114.888C89.0256 114.568 88.5883 114.408 88.0336 114.408C87.4256 114.408 86.935 114.6 86.5616 114.984C86.1883 115.357 86.0016 115.933 86.0016 116.712V121H84.2736V109.8H86.0016V114.024C86.5243 113.203 87.351 112.792 88.4816 112.792ZM95.0463 111.48C94.8329 111.693 94.5769 111.8 94.2783 111.8C93.9796 111.8 93.7183 111.693 93.4943 111.48C93.2809 111.256 93.1743 110.995 93.1743 110.696C93.1743 110.397 93.2809 110.141 93.4943 109.928C93.7076 109.704 93.9689 109.592 94.2783 109.592C94.5876 109.592 94.8489 109.704 95.0623 109.928C95.2756 110.141 95.3823 110.397 95.3823 110.696C95.3823 110.995 95.2703 111.256 95.0463 111.48ZM93.4143 121V113H95.1423V121H93.4143ZM98.6538 115.208C98.6538 115.475 98.7978 115.688 99.0858 115.848C99.3844 115.997 99.7418 116.131 100.158 116.248C100.584 116.355 101.011 116.483 101.438 116.632C101.864 116.781 102.222 117.037 102.51 117.4C102.808 117.752 102.958 118.2 102.958 118.744C102.958 119.512 102.659 120.115 102.062 120.552C101.475 120.989 100.734 121.208 99.8378 121.208C99.0484 121.208 98.3711 121.043 97.8058 120.712C97.2404 120.381 96.8298 119.923 96.5738 119.336L98.0618 118.472C98.3391 119.24 98.9311 119.624 99.8378 119.624C100.744 119.624 101.198 119.325 101.198 118.728C101.198 118.472 101.048 118.264 100.75 118.104C100.462 117.944 100.104 117.811 99.6778 117.704C99.2618 117.587 98.8404 117.453 98.4138 117.304C97.9871 117.155 97.6244 116.909 97.3258 116.568C97.0378 116.216 96.8938 115.773 96.8938 115.24C96.8938 114.504 97.1711 113.912 97.7258 113.464C98.2911 113.016 98.9898 112.792 99.8218 112.792C100.483 112.792 101.07 112.941 101.582 113.24C102.104 113.528 102.504 113.933 102.782 114.456L101.326 115.272C101.048 114.664 100.547 114.36 99.8218 114.36C99.4911 114.36 99.2138 114.435 98.9898 114.584C98.7658 114.723 98.6538 114.931 98.6538 115.208ZM108.628 114.664H106.644V118.504C106.644 118.835 106.719 119.075 106.868 119.224C107.018 119.363 107.236 119.443 107.524 119.464C107.823 119.475 108.191 119.469 108.628 119.448V121C107.306 121.16 106.356 121.048 105.78 120.664C105.204 120.269 104.916 119.549 104.916 118.504V114.664H103.444V113H104.916V111.272L106.644 110.76V113H108.628V114.664ZM113.643 121.208C112.47 121.208 111.473 120.803 110.651 119.992C109.83 119.181 109.419 118.184 109.419 117C109.419 115.816 109.83 114.819 110.651 114.008C111.473 113.197 112.47 112.792 113.643 112.792C114.827 112.792 115.825 113.197 116.635 114.008C117.457 114.819 117.867 115.816 117.867 117C117.867 118.184 117.457 119.181 116.635 119.992C115.825 120.803 114.827 121.208 113.643 121.208ZM111.867 118.808C112.347 119.288 112.939 119.528 113.643 119.528C114.347 119.528 114.939 119.288 115.419 118.808C115.899 118.328 116.139 117.725 116.139 117C116.139 116.275 115.899 115.672 115.419 115.192C114.939 114.712 114.347 114.472 113.643 114.472C112.939 114.472 112.347 114.712 111.867 115.192C111.387 115.672 111.147 116.275 111.147 117C111.147 117.725 111.387 118.328 111.867 118.808ZM121.158 114.344C121.595 113.352 122.417 112.856 123.622 112.856V114.728C122.961 114.685 122.385 114.845 121.894 115.208C121.403 115.56 121.158 116.147 121.158 116.968V121H119.43V113H121.158V114.344ZM130.447 113H132.287L129.215 121.256C128.447 123.325 127.146 124.307 125.311 124.2V122.584C125.855 122.616 126.292 122.499 126.623 122.232C126.954 121.976 127.226 121.571 127.439 121.016L127.519 120.856L124.127 113H126.015L128.399 118.808L130.447 113ZM141.559 111.256C140.301 111.139 139.671 111.667 139.671 112.84V113H141.559V114.664H139.671V121H137.943V114.664H136.727V113H137.943V112.84C137.943 111.741 138.247 110.909 138.855 110.344C139.474 109.768 140.375 109.517 141.559 109.592V111.256ZM145.972 121.208C144.798 121.208 143.801 120.803 142.98 119.992C142.158 119.181 141.748 118.184 141.748 117C141.748 115.816 142.158 114.819 142.98 114.008C143.801 113.197 144.798 112.792 145.972 112.792C147.156 112.792 148.153 113.197 148.964 114.008C149.785 114.819 150.196 115.816 150.196 117C150.196 118.184 149.785 119.181 148.964 119.992C148.153 120.803 147.156 121.208 145.972 121.208ZM144.196 118.808C144.676 119.288 145.268 119.528 145.972 119.528C146.676 119.528 147.268 119.288 147.748 118.808C148.228 118.328 148.468 117.725 148.468 117C148.468 116.275 148.228 115.672 147.748 115.192C147.268 114.712 146.676 114.472 145.972 114.472C145.268 114.472 144.676 114.712 144.196 115.192C143.716 115.672 143.476 116.275 143.476 117C143.476 117.725 143.716 118.328 144.196 118.808ZM153.486 114.344C153.923 113.352 154.745 112.856 155.95 112.856V114.728C155.289 114.685 154.713 114.845 154.222 115.208C153.731 115.56 153.486 116.147 153.486 116.968V121H151.758V113H153.486V114.344ZM165.691 114.664H163.707V118.504C163.707 118.835 163.781 119.075 163.931 119.224C164.08 119.363 164.299 119.443 164.587 119.464C164.885 119.475 165.253 119.469 165.691 119.448V121C164.368 121.16 163.419 121.048 162.843 120.664C162.267 120.269 161.979 119.549 161.979 118.504V114.664H160.507V113H161.979V111.272L163.707 110.76V113H165.691V114.664ZM171.466 112.792C172.383 112.792 173.125 113.085 173.69 113.672C174.255 114.259 174.538 115.064 174.538 116.088V121H172.81V116.264C172.81 115.667 172.65 115.208 172.33 114.888C172.01 114.568 171.573 114.408 171.018 114.408C170.41 114.408 169.919 114.6 169.546 114.984C169.173 115.357 168.986 115.933 168.986 116.712V121H167.258V109.8H168.986V114.024C169.509 113.203 170.335 112.792 171.466 112.792ZM178.031 111.48C177.817 111.693 177.561 111.8 177.263 111.8C176.964 111.8 176.703 111.693 176.479 111.48C176.265 111.256 176.159 110.995 176.159 110.696C176.159 110.397 176.265 110.141 176.479 109.928C176.692 109.704 176.953 109.592 177.263 109.592C177.572 109.592 177.833 109.704 178.047 109.928C178.26 110.141 178.367 110.397 178.367 110.696C178.367 110.995 178.255 111.256 178.031 111.48ZM176.399 121V113H178.127V121H176.399ZM181.638 115.208C181.638 115.475 181.782 115.688 182.07 115.848C182.369 115.997 182.726 116.131 183.142 116.248C183.569 116.355 183.995 116.483 184.422 116.632C184.849 116.781 185.206 117.037 185.494 117.4C185.793 117.752 185.942 118.2 185.942 118.744C185.942 119.512 185.643 120.115 185.046 120.552C184.459 120.989 183.718 121.208 182.822 121.208C182.033 121.208 181.355 121.043 180.79 120.712C180.225 120.381 179.814 119.923 179.558 119.336L181.046 118.472C181.323 119.24 181.915 119.624 182.822 119.624C183.729 119.624 184.182 119.325 184.182 118.728C184.182 118.472 184.033 118.264 183.734 118.104C183.446 117.944 183.089 117.811 182.662 117.704C182.246 117.587 181.825 117.453 181.398 117.304C180.971 117.155 180.609 116.909 180.31 116.568C180.022 116.216 179.878 115.773 179.878 115.24C179.878 114.504 180.155 113.912 180.71 113.464C181.275 113.016 181.974 112.792 182.806 112.792C183.467 112.792 184.054 112.941 184.566 113.24C185.089 113.528 185.489 113.933 185.766 114.456L184.31 115.272C184.033 114.664 183.531 114.36 182.806 114.36C182.475 114.36 182.198 114.435 181.974 114.584C181.75 114.723 181.638 114.931 181.638 115.208ZM195.925 114.664H193.941V118.504C193.941 118.835 194.016 119.075 194.165 119.224C194.314 119.363 194.533 119.443 194.821 119.464C195.12 119.475 195.488 119.469 195.925 119.448V121C194.602 121.16 193.653 121.048 193.077 120.664C192.501 120.269 192.213 119.549 192.213 118.504V114.664H190.741V113H192.213V111.272L193.941 110.76V113H195.925V114.664ZM200.94 121.208C199.767 121.208 198.77 120.803 197.948 119.992C197.127 119.181 196.716 118.184 196.716 117C196.716 115.816 197.127 114.819 197.948 114.008C198.77 113.197 199.767 112.792 200.94 112.792C202.124 112.792 203.122 113.197 203.932 114.008C204.754 114.819 205.164 115.816 205.164 117C205.164 118.184 204.754 119.181 203.932 119.992C203.122 120.803 202.124 121.208 200.94 121.208ZM199.164 118.808C199.644 119.288 200.236 119.528 200.94 119.528C201.644 119.528 202.236 119.288 202.716 118.808C203.196 118.328 203.436 117.725 203.436 117C203.436 116.275 203.196 115.672 202.716 115.192C202.236 114.712 201.644 114.472 200.94 114.472C200.236 114.472 199.644 114.712 199.164 115.192C198.684 115.672 198.444 116.275 198.444 117C198.444 117.725 198.684 118.328 199.164 118.808ZM213.799 121H211.735L208.455 117.304V121H206.727V109.8H208.455V116.536L211.559 113H213.671L210.151 116.92L213.799 121ZM215.681 117.736C215.809 118.344 216.102 118.813 216.561 119.144C217.019 119.464 217.579 119.624 218.241 119.624C219.158 119.624 219.846 119.293 220.305 118.632L221.729 119.464C220.939 120.627 219.771 121.208 218.225 121.208C216.923 121.208 215.873 120.813 215.073 120.024C214.273 119.224 213.873 118.216 213.873 117C213.873 115.805 214.267 114.808 215.057 114.008C215.846 113.197 216.859 112.792 218.097 112.792C219.27 112.792 220.23 113.203 220.977 114.024C221.734 114.845 222.113 115.843 222.113 117.016C222.113 117.197 222.091 117.437 222.049 117.736H215.681ZM215.664 116.328H220.369C220.251 115.677 219.979 115.187 219.553 114.856C219.137 114.525 218.646 114.36 218.081 114.36C217.441 114.36 216.907 114.536 216.481 114.888C216.054 115.24 215.782 115.72 215.664 116.328ZM227.841 112.792C228.758 112.792 229.5 113.085 230.065 113.672C230.63 114.259 230.913 115.064 230.913 116.088V121H229.185V116.264C229.185 115.667 229.025 115.208 228.705 114.888C228.385 114.568 227.948 114.408 227.393 114.408C226.785 114.408 226.294 114.6 225.921 114.984C225.548 115.357 225.361 115.933 225.361 116.712V121H223.633V113H225.361V114.024C225.884 113.203 226.71 112.792 227.841 112.792Z" fill="#3F3F46"/>
</svg>
