<svg width="327" height="48" viewBox="0 0 327 48" fill="none" xmlns="http://www.w3.org/2000/svg">
<rect x="0.5" y="0.5" width="326" height="47" rx="23.5" fill="white" fill-opacity="0.08"/>
<rect x="0.5" y="0.5" width="326" height="47" rx="23.5" stroke="url(#paint0_linear_319_422)"/>
<path d="M118.975 17.8C120.01 17.8 120.868 18.1467 121.551 18.84C122.244 19.5227 122.591 20.376 122.591 21.4C122.591 22.4133 122.244 23.2667 121.551 23.96C120.868 24.6533 120.01 25 118.975 25H116.399V29H114.911V17.8H118.975ZM118.975 23.608C119.594 23.608 120.106 23.4 120.511 22.984C120.916 22.5573 121.119 22.0293 121.119 21.4C121.119 20.76 120.916 20.232 120.511 19.816C120.106 19.4 119.594 19.192 118.975 19.192H116.399V23.608H118.975ZM125.425 22.344C125.883 21.352 126.715 20.856 127.921 20.856V22.312C127.238 22.28 126.651 22.4613 126.161 22.856C125.67 23.2507 125.425 23.8853 125.425 24.76V29H124.033V21H125.425V22.344ZM129.987 19.544C129.72 19.544 129.496 19.4533 129.315 19.272C129.133 19.0907 129.043 18.872 129.043 18.616C129.043 18.36 129.133 18.1413 129.315 17.96C129.496 17.768 129.72 17.672 129.987 17.672C130.243 17.672 130.461 17.768 130.643 17.96C130.824 18.1413 130.915 18.36 130.915 18.616C130.915 18.872 130.824 19.0907 130.643 19.272C130.461 19.4533 130.243 19.544 129.987 19.544ZM129.283 29V21H130.675V29H129.283ZM138.398 21H139.902L136.702 29H135.07L131.87 21H133.374L135.886 27.512L138.398 21ZM147.391 21H148.783V29H147.391V27.624C146.698 28.68 145.69 29.208 144.367 29.208C143.247 29.208 142.292 28.8027 141.503 27.992C140.714 27.1707 140.319 26.1733 140.319 25C140.319 23.8267 140.714 22.8347 141.503 22.024C142.292 21.2027 143.247 20.792 144.367 20.792C145.69 20.792 146.698 21.32 147.391 22.376V21ZM144.543 27.864C145.354 27.864 146.031 27.592 146.575 27.048C147.119 26.4933 147.391 25.8107 147.391 25C147.391 24.1893 147.119 23.512 146.575 22.968C146.031 22.4133 145.354 22.136 144.543 22.136C143.743 22.136 143.071 22.4133 142.527 22.968C141.983 23.512 141.711 24.1893 141.711 25C141.711 25.8107 141.983 26.4933 142.527 27.048C143.071 27.592 143.743 27.864 144.543 27.864ZM154.652 29.208C153.447 29.208 152.444 28.808 151.644 28.008C150.844 27.1973 150.444 26.1947 150.444 25C150.444 23.8053 150.844 22.808 151.644 22.008C152.444 21.1973 153.447 20.792 154.652 20.792C155.441 20.792 156.151 20.984 156.78 21.368C157.409 21.7413 157.879 22.248 158.188 22.888L157.02 23.56C156.817 23.1333 156.503 22.792 156.076 22.536C155.66 22.28 155.185 22.152 154.652 22.152C153.852 22.152 153.18 22.424 152.636 22.968C152.103 23.512 151.836 24.1893 151.836 25C151.836 25.8 152.103 26.472 152.636 27.016C153.18 27.56 153.852 27.832 154.652 27.832C155.185 27.832 155.665 27.7093 156.092 27.464C156.519 27.208 156.844 26.8667 157.068 26.44L158.252 27.128C157.911 27.7573 157.42 28.264 156.78 28.648C156.14 29.0213 155.431 29.208 154.652 29.208ZM165.226 21H166.714L163.45 29.496C163.109 30.4027 162.629 31.0907 162.01 31.56C161.402 32.04 160.698 32.2533 159.898 32.2V30.904C160.879 30.9787 161.599 30.4347 162.058 29.272L162.202 28.968L158.714 21H160.202L162.922 27.272L165.226 21ZM176.084 17.8C177.119 17.8 177.978 18.1467 178.66 18.84C179.354 19.5227 179.7 20.376 179.7 21.4C179.7 22.4133 179.354 23.2667 178.66 23.96C177.978 24.6533 177.119 25 176.084 25H173.508V29H172.02V17.8H176.084ZM176.084 23.608C176.703 23.608 177.215 23.4 177.62 22.984C178.026 22.5573 178.228 22.0293 178.228 21.4C178.228 20.76 178.026 20.232 177.62 19.816C177.215 19.4 176.703 19.192 176.084 19.192H173.508V23.608H176.084ZM187.456 27.992C186.635 28.8027 185.638 29.208 184.464 29.208C183.291 29.208 182.294 28.8027 181.472 27.992C180.662 27.1813 180.256 26.184 180.256 25C180.256 23.816 180.662 22.8187 181.472 22.008C182.294 21.1973 183.291 20.792 184.464 20.792C185.638 20.792 186.635 21.1973 187.456 22.008C188.278 22.8187 188.688 23.816 188.688 25C188.688 26.184 188.278 27.1813 187.456 27.992ZM184.464 27.848C185.264 27.848 185.936 27.576 186.48 27.032C187.024 26.488 187.296 25.8107 187.296 25C187.296 24.1893 187.024 23.512 186.48 22.968C185.936 22.424 185.264 22.152 184.464 22.152C183.675 22.152 183.008 22.424 182.464 22.968C181.92 23.512 181.648 24.1893 181.648 25C181.648 25.8107 181.92 26.488 182.464 27.032C183.008 27.576 183.675 27.848 184.464 27.848ZM190.329 29V17.32H191.721V29H190.329ZM194.549 19.544C194.282 19.544 194.058 19.4533 193.877 19.272C193.696 19.0907 193.605 18.872 193.605 18.616C193.605 18.36 193.696 18.1413 193.877 17.96C194.058 17.768 194.282 17.672 194.549 17.672C194.805 17.672 195.024 17.768 195.205 17.96C195.386 18.1413 195.477 18.36 195.477 18.616C195.477 18.872 195.386 19.0907 195.205 19.272C195.024 19.4533 194.805 19.544 194.549 19.544ZM193.845 29V21H195.237V29H193.845ZM201.121 29.208C199.915 29.208 198.913 28.808 198.113 28.008C197.313 27.1973 196.913 26.1947 196.913 25C196.913 23.8053 197.313 22.808 198.113 22.008C198.913 21.1973 199.915 20.792 201.121 20.792C201.91 20.792 202.619 20.984 203.249 21.368C203.878 21.7413 204.347 22.248 204.657 22.888L203.489 23.56C203.286 23.1333 202.971 22.792 202.545 22.536C202.129 22.28 201.654 22.152 201.121 22.152C200.321 22.152 199.649 22.424 199.105 22.968C198.571 23.512 198.305 24.1893 198.305 25C198.305 25.8 198.571 26.472 199.105 27.016C199.649 27.56 200.321 27.832 201.121 27.832C201.654 27.832 202.134 27.7093 202.561 27.464C202.987 27.208 203.313 26.8667 203.537 26.44L204.721 27.128C204.379 27.7573 203.889 28.264 203.249 28.648C202.609 29.0213 201.899 29.208 201.121 29.208ZM211.695 21H213.183L209.919 29.496C209.577 30.4027 209.097 31.0907 208.479 31.56C207.871 32.04 207.167 32.2533 206.367 32.2V30.904C207.348 30.9787 208.068 30.4347 208.527 29.272L208.671 28.968L205.183 21H206.671L209.391 27.272L211.695 21Z" fill="white"/>
<defs>
<linearGradient id="paint0_linear_319_422" x1="163.5" y1="0" x2="163.5" y2="30.5455" gradientUnits="userSpaceOnUse">
<stop stop-color="white"/>
<stop offset="1" stop-color="white" stop-opacity="0"/>
</linearGradient>
</defs>
</svg>
