<svg width="156" height="48" viewBox="0 0 156 48" fill="none" xmlns="http://www.w3.org/2000/svg">
<rect x="1" y="0.5" width="154.5" height="47" rx="23.5" fill="white" fill-opacity="0.08"/>
<rect x="1" y="0.5" width="154.5" height="47" rx="23.5" stroke="url(#paint0_linear_319_430)"/>
<path d="M46.5437 16.4975C46.3431 16.5121 46.1462 16.5591 45.9606 16.6368H45.9581C45.78 16.7075 44.9331 17.0637 43.6456 17.6037L39.0319 19.5468C35.7212 20.9406 32.4669 22.3131 32.4669 22.3131L32.5056 22.2981C32.5056 22.2981 32.2812 22.3718 32.0469 22.5325C31.9021 22.6246 31.7775 22.7452 31.6806 22.8868C31.5656 23.0556 31.4731 23.3137 31.5075 23.5806C31.5637 24.0318 31.8562 24.3025 32.0662 24.4518C32.2787 24.6031 32.4812 24.6737 32.4812 24.6737H32.4862L35.5381 25.7018C35.675 26.1412 36.4681 28.7487 36.6587 29.3493C36.7712 29.7081 36.8806 29.9325 37.0175 30.1037C37.0837 30.1912 37.1612 30.2643 37.2544 30.3231C37.3028 30.3513 37.3544 30.3735 37.4081 30.3893L37.3769 30.3818C37.3862 30.3843 37.3937 30.3918 37.4006 30.3943C37.4256 30.4012 37.4425 30.4037 37.4744 30.4087C37.9575 30.555 38.3456 30.255 38.3456 30.255L38.3675 30.2375L40.1694 28.5968L43.1894 30.9137L43.2581 30.9431C43.8875 31.2193 44.525 31.0656 44.8619 30.7943C45.2012 30.5212 45.3331 30.1718 45.3331 30.1718L45.355 30.1156L47.6887 18.16C47.755 17.865 47.7719 17.5887 47.6987 17.3206C47.6233 17.0492 47.4492 16.8158 47.2106 16.6662C47.0103 16.5444 46.7779 16.4856 46.5437 16.4975ZM46.4806 17.7787C46.4781 17.8181 46.4856 17.8137 46.4681 17.8893V17.8962L44.1562 29.7275C44.1462 29.7443 44.1294 29.7812 44.0831 29.8181C44.0344 29.8568 43.9956 29.8812 43.7925 29.8006L40.0987 26.9687L37.8675 29.0025L38.3362 26.0087L44.3712 20.3837C44.62 20.1525 44.5369 20.1037 44.5369 20.1037C44.5544 19.82 44.1612 20.0206 44.1612 20.0206L36.5512 24.735L36.5487 24.7225L32.9012 23.4943V23.4918L32.8919 23.49C32.8983 23.4878 32.9045 23.4853 32.9106 23.4825L32.9306 23.4725L32.95 23.4656C32.95 23.4656 36.2069 22.0931 39.5175 20.6993C41.175 20.0012 42.845 19.2981 44.1294 18.7556C44.8911 18.435 45.6536 18.1162 46.4169 17.7993C46.4681 17.7793 46.4437 17.7787 46.4806 17.7787Z" fill="white"/>
<path d="M66.6258 17.8V19.208H63.3138V29H61.8418V19.208H58.5458V17.8H66.6258ZM67.4773 25.64C67.616 26.3547 67.9413 26.9093 68.4533 27.304C68.976 27.6987 69.616 27.896 70.3733 27.896C71.4293 27.896 72.1973 27.5067 72.6773 26.728L73.8613 27.4C73.0826 28.6053 71.9093 29.208 70.3413 29.208C69.072 29.208 68.0373 28.8133 67.2373 28.024C66.448 27.224 66.0533 26.216 66.0533 25C66.0533 23.7947 66.4426 22.792 67.2213 21.992C68 21.192 69.008 20.792 70.2453 20.792C71.4186 20.792 72.3733 21.208 73.1093 22.04C73.856 22.8613 74.2293 23.8533 74.2293 25.016C74.2293 25.2187 74.2133 25.4267 74.1813 25.64H67.4773ZM70.2453 22.104C69.4986 22.104 68.88 22.3173 68.3893 22.744C67.8986 23.16 67.5946 23.72 67.4773 24.424H72.8213C72.704 23.6667 72.4053 23.0907 71.9253 22.696C71.4453 22.3013 70.8853 22.104 70.2453 22.104ZM75.8294 29V17.32H77.2214V29H75.8294ZM80.3211 25.64C80.4597 26.3547 80.7851 26.9093 81.2971 27.304C81.8197 27.6987 82.4597 27.896 83.2171 27.896C84.2731 27.896 85.0411 27.5067 85.5211 26.728L86.7051 27.4C85.9264 28.6053 84.7531 29.208 83.1851 29.208C81.9157 29.208 80.8811 28.8133 80.0811 28.024C79.2917 27.224 78.8971 26.216 78.8971 25C78.8971 23.7947 79.2864 22.792 80.0651 21.992C80.8437 21.192 81.8517 20.792 83.0891 20.792C84.2624 20.792 85.2171 21.208 85.9531 22.04C86.6997 22.8613 87.0731 23.8533 87.0731 25.016C87.0731 25.2187 87.0571 25.4267 87.0251 25.64H80.3211ZM83.0891 22.104C82.3424 22.104 81.7237 22.3173 81.2331 22.744C80.7424 23.16 80.4384 23.72 80.3211 24.424H85.6651C85.5477 23.6667 85.2491 23.0907 84.7691 22.696C84.2891 22.3013 83.7291 22.104 83.0891 22.104ZM95.2976 21H96.6736V28.664C96.6736 29.848 96.2736 30.7653 95.4736 31.416C94.6736 32.0773 93.7136 32.408 92.5936 32.408C91.6976 32.408 90.9242 32.2373 90.2736 31.896C89.6229 31.5653 89.1322 31.0853 88.8016 30.456L90.0176 29.768C90.4549 30.664 91.3242 31.112 92.6256 31.112C93.4576 31.112 94.1082 30.8933 94.5776 30.456C95.0576 30.0187 95.2976 29.4213 95.2976 28.664V27.528C94.5936 28.5947 93.5909 29.128 92.2896 29.128C91.1482 29.128 90.1829 28.7227 89.3936 27.912C88.6042 27.1013 88.2096 26.1147 88.2096 24.952C88.2096 23.7893 88.6042 22.808 89.3936 22.008C90.1829 21.1973 91.1482 20.792 92.2896 20.792C93.6016 20.792 94.6042 21.32 95.2976 22.376V21ZM90.4176 26.984C90.9616 27.528 91.6389 27.8 92.4496 27.8C93.2602 27.8 93.9376 27.528 94.4816 26.984C95.0256 26.44 95.2976 25.7627 95.2976 24.952C95.2976 24.152 95.0256 23.48 94.4816 22.936C93.9376 22.392 93.2602 22.12 92.4496 22.12C91.6389 22.12 90.9616 22.392 90.4176 22.936C89.8736 23.48 89.6016 24.152 89.6016 24.952C89.6016 25.7627 89.8736 26.44 90.4176 26.984ZM100.175 22.344C100.633 21.352 101.465 20.856 102.671 20.856V22.312C101.988 22.28 101.401 22.4613 100.911 22.856C100.42 23.2507 100.175 23.8853 100.175 24.76V29H98.7826V21H100.175V22.344ZM110.219 21H111.611V29H110.219V27.624C109.526 28.68 108.518 29.208 107.195 29.208C106.075 29.208 105.12 28.8027 104.331 27.992C103.542 27.1707 103.147 26.1733 103.147 25C103.147 23.8267 103.542 22.8347 104.331 22.024C105.12 21.2027 106.075 20.792 107.195 20.792C108.518 20.792 109.526 21.32 110.219 22.376V21ZM107.371 27.864C108.182 27.864 108.859 27.592 109.403 27.048C109.947 26.4933 110.219 25.8107 110.219 25C110.219 24.1893 109.947 23.512 109.403 22.968C108.859 22.4133 108.182 22.136 107.371 22.136C106.571 22.136 105.899 22.4133 105.355 22.968C104.811 23.512 104.539 24.1893 104.539 25C104.539 25.8107 104.811 26.4933 105.355 27.048C105.899 27.592 106.571 27.864 107.371 27.864ZM122.36 20.792C123.256 20.792 123.981 21.0853 124.536 21.672C125.091 22.248 125.368 23.032 125.368 24.024V29H123.976V24.072C123.976 23.4533 123.816 22.9733 123.496 22.632C123.176 22.2907 122.749 22.12 122.216 22.12C121.619 22.12 121.139 22.3227 120.776 22.728C120.424 23.1227 120.248 23.7307 120.248 24.552V29H118.856V24.072C118.856 23.4533 118.701 22.9733 118.392 22.632C118.093 22.2907 117.683 22.12 117.16 22.12C116.573 22.12 116.083 22.3227 115.688 22.728C115.304 23.1333 115.112 23.7413 115.112 24.552V29H113.72V21H115.112V22.072C115.656 21.2187 116.451 20.792 117.496 20.792C118.573 20.792 119.357 21.2453 119.848 22.152C120.403 21.2453 121.24 20.792 122.36 20.792Z" fill="white"/>
<defs>
<linearGradient id="paint0_linear_319_430" x1="78" y1="62.5" x2="78.25" y2="30.5455" gradientUnits="userSpaceOnUse">
<stop stop-color="white"/>
<stop offset="1" stop-color="white" stop-opacity="0"/>
</linearGradient>
</defs>
</svg>
