<svg width="21" height="20" viewBox="0 0 21 20" fill="none" xmlns="http://www.w3.org/2000/svg">
<path d="M13.4167 10.9583H11.6084C10.1251 10.9583 8.91675 9.75833 8.91675 8.26666V6.45833C8.91675 6.11666 8.64175 5.83333 8.29175 5.83333H5.65008C3.72508 5.83333 2.16675 7.08333 2.16675 9.31666V14.85C2.16675 17.0833 3.72508 18.3333 5.65008 18.3333H10.5584C12.4834 18.3333 14.0417 17.0833 14.0417 14.85V11.5833C14.0417 11.2333 13.7584 10.9583 13.4167 10.9583Z" fill="white"/>
<path d="M15.3499 1.66667H13.7082H12.7999H10.4416C8.55822 1.66667 7.03322 2.86667 6.96655 5.00834C7.01655 5.00834 7.05822 5.00001 7.10822 5.00001H9.46655H10.3749H12.0166C13.9416 5.00001 15.4999 6.25001 15.4999 8.48334V10.125V12.3833V14.025C15.4999 14.075 15.4916 14.1167 15.4916 14.1583C17.3499 14.1 18.8332 12.8667 18.8332 10.6917V9.05V6.79167V5.15001C18.8332 2.91667 17.2749 1.66667 15.3499 1.66667Z" fill="white"/>
<path d="M10.4834 5.95834C10.2251 5.70001 9.78345 5.87501 9.78345 6.23334V8.41667C9.78345 9.33334 10.5584 10.0833 11.5084 10.0833C12.1001 10.0917 12.9251 10.0917 13.6334 10.0917C13.9918 10.0917 14.1751 9.67501 13.9251 9.42501C13.0168 8.51667 11.4001 6.89167 10.4834 5.95834Z" fill="white"/>
</svg>
