<svg width="56" height="128" viewBox="0 0 56 128" fill="none" xmlns="http://www.w3.org/2000/svg">
<rect width="56" height="128" rx="10" fill="url(#paint0_linear_44_2651)"/>
<mask id="mask0_44_2651" style="mask-type:alpha" maskUnits="userSpaceOnUse" x="0" y="0" width="56" height="128">
<rect width="56" height="128" rx="10" fill="url(#paint1_linear_44_2651)"/>
</mask>
<g mask="url(#mask0_44_2651)">
<rect x="85.8311" y="-86" width="24" height="237.364" transform="rotate(46.0298 85.8311 -86)" fill="white" fill-opacity="0.1"/>
<rect x="104.831" y="-58" width="24" height="237.364" transform="rotate(46.0298 104.831 -58)" fill="white" fill-opacity="0.1"/>
<rect x="120.831" y="-29" width="24" height="237.364" transform="rotate(46.0298 120.831 -29)" fill="white" fill-opacity="0.1"/>
<rect x="133.831" y="7" width="24" height="237.364" transform="rotate(46.0298 133.831 7)" fill="white" fill-opacity="0.1"/>
<rect x="140.831" y="52" width="24" height="237.364" transform="rotate(46.0298 140.831 52)" fill="white" fill-opacity="0.1"/>
<rect x="154.831" y="90" width="24" height="237.364" transform="rotate(46.0298 154.831 90)" fill="white" fill-opacity="0.1"/>
</g>
<defs>
<linearGradient id="paint0_linear_44_2651" x1="-42.5" y1="124.235" x2="-6.8123" y2="-80.774" gradientUnits="userSpaceOnUse">
<stop stop-color="#00C5EC"/>
<stop offset="0.27" stop-color="#423FF1"/>
<stop offset="0.555" stop-color="#E131FD"/>
</linearGradient>
<linearGradient id="paint1_linear_44_2651" x1="-42.5" y1="124.235" x2="-6.8123" y2="-80.774" gradientUnits="userSpaceOnUse">
<stop stop-color="#00C5EC"/>
<stop offset="0.27" stop-color="#423FF1"/>
<stop offset="0.555" stop-color="#E131FD"/>
</linearGradient>
</defs>
</svg>
