<svg width="56" height="211" viewBox="0 0 56 211" fill="none" xmlns="http://www.w3.org/2000/svg">
<rect width="56" height="211" rx="10" fill="url(#paint0_linear_44_2635)"/>
<mask id="mask0_44_2635" style="mask-type:alpha" maskUnits="userSpaceOnUse" x="0" y="0" width="56" height="211">
<rect width="56" height="211" rx="10" fill="url(#paint1_linear_44_2635)"/>
</mask>
<g mask="url(#mask0_44_2635)">
<rect width="23.3916" height="231.769" transform="matrix(0.712343 0.701831 -0.737074 0.675812 85.8311 -81.7387)" fill="white" fill-opacity="0.1"/>
<rect width="23.3916" height="231.769" transform="matrix(0.712343 0.701831 -0.737074 0.675812 104.831 -55.1261)" fill="white" fill-opacity="0.1"/>
<rect width="23.3916" height="231.769" transform="matrix(0.712343 0.701831 -0.737074 0.675812 120.831 -27.563)" fill="white" fill-opacity="0.1"/>
<rect width="23.3916" height="231.769" transform="matrix(0.712343 0.701831 -0.737074 0.675812 133.831 6.65314)" fill="white" fill-opacity="0.1"/>
<rect width="23.3916" height="231.769" transform="matrix(0.712343 0.701831 -0.737074 0.675812 140.831 49.4234)" fill="white" fill-opacity="0.1"/>
<rect width="23.3916" height="231.769" transform="matrix(0.712343 0.701831 -0.737074 0.675812 154.831 85.5405)" fill="white" fill-opacity="0.1"/>
<rect width="23.3916" height="231.769" transform="matrix(0.712343 0.701831 -0.737074 0.675812 163.831 129.261)" fill="white" fill-opacity="0.1"/>
</g>
<defs>
<linearGradient id="paint0_linear_44_2635" x1="-42.5" y1="204.794" x2="49.8131" y2="-116.902" gradientUnits="userSpaceOnUse">
<stop stop-color="#00C5EC"/>
<stop offset="0.27" stop-color="#423FF1"/>
<stop offset="0.555" stop-color="#E131FD"/>
</linearGradient>
<linearGradient id="paint1_linear_44_2635" x1="-42.5" y1="204.794" x2="49.8131" y2="-116.902" gradientUnits="userSpaceOnUse">
<stop stop-color="#00C5EC"/>
<stop offset="0.27" stop-color="#423FF1"/>
<stop offset="0.555" stop-color="#E131FD"/>
</linearGradient>
</defs>
</svg>
